<?xml version="1.0" encoding="UTF-8" standalone="no"?>
<!DOCTYPE svg PUBLIC "-//W3C//DTD SVG 1.1//EN"
 "http://www.w3.org/Graphics/SVG/1.1/DTD/svg11.dtd">
<!-- Generated by graphviz version 14.1.2 (20260124.0452)
 -->
<!-- Title: DNA_Sample_Manager Pages: 1 -->
<svg width="1298pt" height="611pt"
 viewBox="0.00 0.00 1298.00 611.00" xmlns="http://www.w3.org/2000/svg" xmlns:xlink="http://www.w3.org/1999/xlink">
<g id="graph0" class="graph" transform="scale(1 1) rotate(0) translate(36 574.75)">
<title>DNA_Sample_Manager</title>
<polygon fill="white" stroke="none" points="-36,36 -36,-574.75 1261.5,-574.75 1261.5,36 -36,36"/>
<!-- individual -->
<g id="node1" class="node">
<title>individual</title>
<polygon fill="#2563eb" stroke="none" points="0,-512.5 0,-538.75 215.25,-538.75 215.25,-512.5 0,-512.5"/>
<polygon fill="none" stroke="black" points="0,-512.5 0,-538.75 215.25,-538.75 215.25,-512.5 0,-512.5"/>
<text xml:space="preserve" text-anchor="start" x="40.12" y="-523.3" font-family="Helvetica Neue, Arial, sans-serif" font-size="11.00"> &#160;&#160;&#160;&#160;&#160;&#160;&#160;&#160;&#160;&#160;&#160;&#160;&#160;&#160;&#160;</text>
<text xml:space="preserve" text-anchor="start" x="88.12" y="-523.3" font-family="Helvetica Neue, Arial, sans-serif" font-weight="bold" font-size="11.00" fill="white">individual</text>
<text xml:space="preserve" text-anchor="start" x="139.12" y="-523.3" font-family="Helvetica Neue, Arial, sans-serif" font-size="11.00"> &#160;&#160;&#160;&#160;&#160;&#160;&#160;&#160;&#160;&#160;&#160;</text>
<polygon fill="none" stroke="black" points="0,-486.25 0,-512.5 27.75,-512.5 27.75,-486.25 0,-486.25"/>
<text xml:space="preserve" text-anchor="start" x="6" y="-495.68" font-family="Helvetica Neue, Arial, sans-serif" font-size="11.00" fill="#6b7280">PK</text>
<polygon fill="none" stroke="black" points="27.75,-486.25 27.75,-512.5 134.25,-512.5 134.25,-486.25 27.75,-486.25"/>
<text xml:space="preserve" text-anchor="start" x="33.75" y="-497.05" font-family="Helvetica Neue, Arial, sans-serif" font-weight="bold" font-size="11.00">id</text>
<polygon fill="none" stroke="black" points="134.25,-486.25 134.25,-512.5 215.25,-512.5 215.25,-486.25 134.25,-486.25"/>
<text xml:space="preserve" text-anchor="start" x="140.25" y="-495.68" font-family="Helvetica Neue, Arial, sans-serif" font-size="11.00">Integer</text>
<polygon fill="none" stroke="black" points="0,-460.75 0,-486.25 27.75,-486.25 27.75,-460.75 0,-460.75"/>
<text xml:space="preserve" text-anchor="start" x="6" y="-469.8" font-family="Helvetica Neue, Arial, sans-serif" font-size="11.00" fill="#f59e0b">UK</text>
<polygon fill="none" stroke="black" points="27.75,-460.75 27.75,-486.25 134.25,-486.25 134.25,-460.75 27.75,-460.75"/>
<text xml:space="preserve" text-anchor="start" x="33.75" y="-469.8" font-family="Helvetica Neue, Arial, sans-serif" font-size="11.00">individual_id</text>
<polygon fill="none" stroke="black" points="134.25,-460.75 134.25,-486.25 215.25,-486.25 215.25,-460.75 134.25,-460.75"/>
<text xml:space="preserve" text-anchor="start" x="140.25" y="-469.8" font-family="Helvetica Neue, Arial, sans-serif" font-size="11.00">String(50)</text>
<polygon fill="none" stroke="black" points="0,-435.25 0,-460.75 27.75,-460.75 27.75,-435.25 0,-435.25"/>
<polygon fill="none" stroke="black" points="27.75,-435.25 27.75,-460.75 134.25,-460.75 134.25,-435.25 27.75,-435.25"/>
<text xml:space="preserve" text-anchor="start" x="33.75" y="-444.3" font-family="Helvetica Neue, Arial, sans-serif" font-size="11.00">aliases</text>
<polygon fill="none" stroke="black" points="134.25,-435.25 134.25,-460.75 215.25,-460.75 215.25,-435.25 134.25,-435.25"/>
<text xml:space="preserve" text-anchor="start" x="140.25" y="-444.3" font-family="Helvetica Neue, Arial, sans-serif" font-size="11.00">String(100)</text>
<polygon fill="none" stroke="black" points="0,-409.75 0,-435.25 27.75,-435.25 27.75,-409.75 0,-409.75"/>
<polygon fill="none" stroke="black" points="27.75,-409.75 27.75,-435.25 134.25,-435.25 134.25,-409.75 27.75,-409.75"/>
<text xml:space="preserve" text-anchor="start" x="33.75" y="-418.8" font-family="Helvetica Neue, Arial, sans-serif" font-size="11.00">family_id</text>
<polygon fill="none" stroke="black" points="134.25,-409.75 134.25,-435.25 215.25,-435.25 215.25,-409.75 134.25,-409.75"/>
<text xml:space="preserve" text-anchor="start" x="140.25" y="-418.8" font-family="Helvetica Neue, Arial, sans-serif" font-size="11.00">String(50)</text>
<polygon fill="none" stroke="black" points="0,-384.25 0,-409.75 27.75,-409.75 27.75,-384.25 0,-384.25"/>
<polygon fill="none" stroke="black" points="27.75,-384.25 27.75,-409.75 134.25,-409.75 134.25,-384.25 27.75,-384.25"/>
<text xml:space="preserve" text-anchor="start" x="33.75" y="-393.3" font-family="Helvetica Neue, Arial, sans-serif" font-size="11.00">sex</text>
<polygon fill="none" stroke="black" points="134.25,-384.25 134.25,-409.75 215.25,-409.75 215.25,-384.25 134.25,-384.25"/>
<text xml:space="preserve" text-anchor="start" x="140.25" y="-393.3" font-family="Helvetica Neue, Arial, sans-serif" font-size="11.00">Integer (0/1/2)</text>
<polygon fill="none" stroke="black" points="0,-358.75 0,-384.25 27.75,-384.25 27.75,-358.75 0,-358.75"/>
<polygon fill="none" stroke="black" points="27.75,-358.75 27.75,-384.25 134.25,-384.25 134.25,-358.75 27.75,-358.75"/>
<text xml:space="preserve" text-anchor="start" x="33.75" y="-367.8" font-family="Helvetica Neue, Arial, sans-serif" font-size="11.00">phenotype</text>
<polygon fill="none" stroke="black" points="134.25,-358.75 134.25,-384.25 215.25,-384.25 215.25,-358.75 134.25,-358.75"/>
<text xml:space="preserve" text-anchor="start" x="140.25" y="-367.8" font-family="Helvetica Neue, Arial, sans-serif" font-size="11.00">String(20)</text>
<polygon fill="none" stroke="black" points="0,-333.25 0,-358.75 27.75,-358.75 27.75,-333.25 0,-333.25"/>
<polygon fill="none" stroke="black" points="27.75,-333.25 27.75,-358.75 134.25,-358.75 134.25,-333.25 27.75,-333.25"/>
<text xml:space="preserve" text-anchor="start" x="33.75" y="-342.3" font-family="Helvetica Neue, Arial, sans-serif" font-size="11.00">projects</text>
<polygon fill="none" stroke="black" points="134.25,-333.25 134.25,-358.75 215.25,-358.75 215.25,-333.25 134.25,-333.25"/>
<text xml:space="preserve" text-anchor="start" x="140.25" y="-342.3" font-family="Helvetica Neue, Arial, sans-serif" font-size="11.00">String(200)</text>
<polygon fill="none" stroke="black" points="0,-307.75 0,-333.25 27.75,-333.25 27.75,-307.75 0,-307.75"/>
<polygon fill="none" stroke="black" points="27.75,-307.75 27.75,-333.25 134.25,-333.25 134.25,-307.75 27.75,-307.75"/>
<text xml:space="preserve" text-anchor="start" x="33.75" y="-316.8" font-family="Helvetica Neue, Arial, sans-serif" font-size="11.00">other_family_codes</text>
<polygon fill="none" stroke="black" points="134.25,-307.75 134.25,-333.25 215.25,-333.25 215.25,-307.75 134.25,-307.75"/>
<text xml:space="preserve" text-anchor="start" x="140.25" y="-316.8" font-family="Helvetica Neue, Arial, sans-serif" font-size="11.00">String(100)</text>
<polygon fill="none" stroke="black" points="0,-282.25 0,-307.75 27.75,-307.75 27.75,-282.25 0,-282.25"/>
<polygon fill="none" stroke="black" points="27.75,-282.25 27.75,-307.75 134.25,-307.75 134.25,-282.25 27.75,-282.25"/>
<text xml:space="preserve" text-anchor="start" x="33.75" y="-291.3" font-family="Helvetica Neue, Arial, sans-serif" font-size="11.00">notes</text>
<polygon fill="none" stroke="black" points="134.25,-282.25 134.25,-307.75 215.25,-307.75 215.25,-282.25 134.25,-282.25"/>
<text xml:space="preserve" text-anchor="start" x="140.25" y="-291.3" font-family="Helvetica Neue, Arial, sans-serif" font-size="11.00">Text</text>
<polygon fill="none" stroke="black" points="0,-256.75 0,-282.25 27.75,-282.25 27.75,-256.75 0,-256.75"/>
<polygon fill="none" stroke="black" points="27.75,-256.75 27.75,-282.25 134.25,-282.25 134.25,-256.75 27.75,-256.75"/>
<text xml:space="preserve" text-anchor="start" x="33.75" y="-265.8" font-family="Helvetica Neue, Arial, sans-serif" font-size="11.00">created_at</text>
<polygon fill="none" stroke="black" points="134.25,-256.75 134.25,-282.25 215.25,-282.25 215.25,-256.75 134.25,-256.75"/>
<text xml:space="preserve" text-anchor="start" x="140.25" y="-265.8" font-family="Helvetica Neue, Arial, sans-serif" font-size="11.00">DateTime</text>
<polygon fill="none" stroke="black" points="0,-231.25 0,-256.75 27.75,-256.75 27.75,-231.25 0,-231.25"/>
<polygon fill="none" stroke="black" points="27.75,-231.25 27.75,-256.75 134.25,-256.75 134.25,-231.25 27.75,-231.25"/>
<text xml:space="preserve" text-anchor="start" x="33.75" y="-240.3" font-family="Helvetica Neue, Arial, sans-serif" font-size="11.00">updated_at</text>
<polygon fill="none" stroke="black" points="134.25,-231.25 134.25,-256.75 215.25,-256.75 215.25,-231.25 134.25,-231.25"/>
<text xml:space="preserve" text-anchor="start" x="140.25" y="-240.3" font-family="Helvetica Neue, Arial, sans-serif" font-size="11.00">DateTime</text>
</g>
<!-- sample -->
<g id="node2" class="node">
<title>sample</title>
<polygon fill="#059669" stroke="none" points="353,-461.5 353,-487.75 539.75,-487.75 539.75,-461.5 353,-461.5"/>
<polygon fill="none" stroke="black" points="353,-461.5 353,-487.75 539.75,-487.75 539.75,-461.5 353,-461.5"/>
<text xml:space="preserve" text-anchor="start" x="385.62" y="-472.3" font-family="Helvetica Neue, Arial, sans-serif" font-size="11.00"> &#160;&#160;&#160;&#160;&#160;&#160;&#160;&#160;&#160;&#160;&#160;&#160;&#160;&#160;&#160;</text>
<text xml:space="preserve" text-anchor="start" x="433.62" y="-472.3" font-family="Helvetica Neue, Arial, sans-serif" font-weight="bold" font-size="11.00" fill="white">sample</text>
<text xml:space="preserve" text-anchor="start" x="471.12" y="-472.3" font-family="Helvetica Neue, Arial, sans-serif" font-size="11.00"> &#160;&#160;&#160;&#160;&#160;&#160;&#160;&#160;&#160;&#160;&#160;</text>
<polygon fill="none" stroke="black" points="353,-435.25 353,-461.5 380.75,-461.5 380.75,-435.25 353,-435.25"/>
<text xml:space="preserve" text-anchor="start" x="359" y="-444.68" font-family="Helvetica Neue, Arial, sans-serif" font-size="11.00" fill="#6b7280">PK</text>
<polygon fill="none" stroke="black" points="380.75,-435.25 380.75,-461.5 455.75,-461.5 455.75,-435.25 380.75,-435.25"/>
<text xml:space="preserve" text-anchor="start" x="386.75" y="-446.05" font-family="Helvetica Neue, Arial, sans-serif" font-weight="bold" font-size="11.00">id</text>
<polygon fill="none" stroke="black" points="455.75,-435.25 455.75,-461.5 539.75,-461.5 539.75,-435.25 455.75,-435.25"/>
<text xml:space="preserve" text-anchor="start" x="461.75" y="-444.68" font-family="Helvetica Neue, Arial, sans-serif" font-size="11.00">Integer</text>
<polygon fill="none" stroke="black" points="353,-409.75 353,-435.25 380.75,-435.25 380.75,-409.75 353,-409.75"/>
<text xml:space="preserve" text-anchor="start" x="359" y="-418.8" font-family="Helvetica Neue, Arial, sans-serif" font-size="11.00" fill="#f59e0b">UK</text>
<polygon fill="none" stroke="black" points="380.75,-409.75 380.75,-435.25 455.75,-435.25 455.75,-409.75 380.75,-409.75"/>
<text xml:space="preserve" text-anchor="start" x="386.75" y="-418.8" font-family="Helvetica Neue, Arial, sans-serif" font-size="11.00">sample_id</text>
<polygon fill="none" stroke="black" points="455.75,-409.75 455.75,-435.25 539.75,-435.25 539.75,-409.75 455.75,-409.75"/>
<text xml:space="preserve" text-anchor="start" x="461.75" y="-418.8" font-family="Helvetica Neue, Arial, sans-serif" font-size="11.00">String(20)</text>
<polygon fill="none" stroke="black" points="353,-384.25 353,-409.75 380.75,-409.75 380.75,-384.25 353,-384.25"/>
<text xml:space="preserve" text-anchor="start" x="359" y="-393.3" font-family="Helvetica Neue, Arial, sans-serif" font-size="11.00" fill="#dc2626">FK</text>
<polygon fill="none" stroke="black" points="380.75,-384.25 380.75,-409.75 455.75,-409.75 455.75,-384.25 380.75,-384.25"/>
<text xml:space="preserve" text-anchor="start" x="386.75" y="-393.3" font-family="Helvetica Neue, Arial, sans-serif" font-size="11.00">individual_id</text>
<polygon fill="none" stroke="black" points="455.75,-384.25 455.75,-409.75 539.75,-409.75 539.75,-384.25 455.75,-384.25"/>
<text xml:space="preserve" text-anchor="start" x="461.75" y="-393.3" font-family="Helvetica Neue, Arial, sans-serif" font-size="11.00">→ individual.id</text>
<polygon fill="none" stroke="black" points="353,-358.75 353,-384.25 380.75,-384.25 380.75,-358.75 353,-358.75"/>
<polygon fill="none" stroke="black" points="380.75,-358.75 380.75,-384.25 455.75,-384.25 455.75,-358.75 380.75,-358.75"/>
<text xml:space="preserve" text-anchor="start" x="386.75" y="-367.8" font-family="Helvetica Neue, Arial, sans-serif" font-size="11.00">sample_type</text>
<polygon fill="none" stroke="black" points="455.75,-358.75 455.75,-384.25 539.75,-384.25 539.75,-358.75 455.75,-358.75"/>
<text xml:space="preserve" text-anchor="start" x="461.75" y="-367.8" font-family="Helvetica Neue, Arial, sans-serif" font-size="11.00">String(50)</text>
<polygon fill="none" stroke="black" points="353,-333.25 353,-358.75 380.75,-358.75 380.75,-333.25 353,-333.25"/>
<polygon fill="none" stroke="black" points="380.75,-333.25 380.75,-358.75 455.75,-358.75 455.75,-333.25 380.75,-333.25"/>
<text xml:space="preserve" text-anchor="start" x="386.75" y="-342.3" font-family="Helvetica Neue, Arial, sans-serif" font-size="11.00">arrival_date</text>
<polygon fill="none" stroke="black" points="455.75,-333.25 455.75,-358.75 539.75,-358.75 539.75,-333.25 455.75,-333.25"/>
<text xml:space="preserve" text-anchor="start" x="461.75" y="-342.3" font-family="Helvetica Neue, Arial, sans-serif" font-size="11.00">Date</text>
<polygon fill="none" stroke="black" points="353,-307.75 353,-333.25 380.75,-333.25 380.75,-307.75 353,-307.75"/>
<polygon fill="none" stroke="black" points="380.75,-307.75 380.75,-333.25 455.75,-333.25 455.75,-307.75 380.75,-307.75"/>
<text xml:space="preserve" text-anchor="start" x="386.75" y="-316.8" font-family="Helvetica Neue, Arial, sans-serif" font-size="11.00">notes</text>
<polygon fill="none" stroke="black" points="455.75,-307.75 455.75,-333.25 539.75,-333.25 539.75,-307.75 455.75,-307.75"/>
<text xml:space="preserve" text-anchor="start" x="461.75" y="-316.8" font-family="Helvetica Neue, Arial, sans-serif" font-size="11.00">Text</text>
<polygon fill="none" stroke="black" points="353,-282.25 353,-307.75 380.75,-307.75 380.75,-282.25 353,-282.25"/>
<polygon fill="none" stroke="black" points="380.75,-282.25 380.75,-307.75 455.75,-307.75 455.75,-282.25 380.75,-282.25"/>
<text xml:space="preserve" text-anchor="start" x="386.75" y="-291.3" font-family="Helvetica Neue, Arial, sans-serif" font-size="11.00">created_at</text>
<polygon fill="none" stroke="black" points="455.75,-282.25 455.75,-307.75 539.75,-307.75 539.75,-282.25 455.75,-282.25"/>
<text xml:space="preserve" text-anchor="start" x="461.75" y="-291.3" font-family="Helvetica Neue, Arial, sans-serif" font-size="11.00">DateTime</text>
</g>
<!-- individual&#45;&gt;sample -->
<g id="edge1" class="edge">
<title>individual&#45;&gt;sample</title>
<path fill="none" stroke="#555555" d="M220.14,-385C259.73,-385 304.07,-385 342.87,-385"/>
<polygon fill="#555555" stroke="#555555" points="216.17,-390 216.17,-380 218.17,-380 218.17,-390 216.17,-390"/>
<polyline fill="none" stroke="#555555" points="215.17,-385 220.17,-385"/>
<polygon fill="#555555" stroke="#555555" points="342.8,-385 352.8,-389.5 348.13,-385 352.46,-385 352.46,-385 352.46,-385 348.13,-385 352.8,-380.5 342.8,-385"/>
<text xml:space="preserve" text-anchor="middle" x="284.12" y="-387.5" font-family="Helvetica Neue, Arial, sans-serif" font-size="10.00"> &#160;1 &#160;&#160;&#160;&#160;&#160;&#160;&#160;&#160;N &#160;</text>
</g>
<!-- tube -->
<g id="node4" class="node">
<title>tube</title>
<polygon fill="#7c3aed" stroke="none" points="677.5,-357.75 677.5,-384 915.25,-384 915.25,-357.75 677.5,-357.75"/>
<polygon fill="none" stroke="black" points="677.5,-357.75 677.5,-384 915.25,-384 915.25,-357.75 677.5,-357.75"/>
<text xml:space="preserve" text-anchor="start" x="742.75" y="-368.55" font-family="Helvetica Neue, Arial, sans-serif" font-size="11.00"> &#160;&#160;&#160;&#160;&#160;&#160;&#160;&#160;&#160;&#160;&#160;&#160;&#160;&#160;&#160;</text>
<text xml:space="preserve" text-anchor="start" x="790.75" y="-368.55" font-family="Helvetica Neue, Arial, sans-serif" font-weight="bold" font-size="11.00" fill="white">tube</text>
<text xml:space="preserve" text-anchor="start" x="814" y="-368.55" font-family="Helvetica Neue, Arial, sans-serif" font-size="11.00"> &#160;&#160;&#160;&#160;&#160;&#160;&#160;&#160;&#160;&#160;&#160;</text>
<polygon fill="none" stroke="black" points="677.5,-331.5 677.5,-357.75 705.25,-357.75 705.25,-331.5 677.5,-331.5"/>
<text xml:space="preserve" text-anchor="start" x="683.5" y="-340.93" font-family="Helvetica Neue, Arial, sans-serif" font-size="11.00" fill="#6b7280">PK</text>
<polygon fill="none" stroke="black" points="705.25,-331.5 705.25,-357.75 793,-357.75 793,-331.5 705.25,-331.5"/>
<text xml:space="preserve" text-anchor="start" x="711.25" y="-342.3" font-family="Helvetica Neue, Arial, sans-serif" font-weight="bold" font-size="11.00">id</text>
<polygon fill="none" stroke="black" points="793,-331.5 793,-357.75 915.25,-357.75 915.25,-331.5 793,-331.5"/>
<text xml:space="preserve" text-anchor="start" x="799" y="-340.93" font-family="Helvetica Neue, Arial, sans-serif" font-size="11.00">Integer</text>
<polygon fill="none" stroke="black" points="677.5,-306 677.5,-331.5 705.25,-331.5 705.25,-306 677.5,-306"/>
<text xml:space="preserve" text-anchor="start" x="683.5" y="-315.05" font-family="Helvetica Neue, Arial, sans-serif" font-size="11.00" fill="#f59e0b">UK</text>
<polygon fill="none" stroke="black" points="705.25,-306 705.25,-331.5 793,-331.5 793,-306 705.25,-306"/>
<text xml:space="preserve" text-anchor="start" x="711.25" y="-315.05" font-family="Helvetica Neue, Arial, sans-serif" font-size="11.00">barcode</text>
<polygon fill="none" stroke="black" points="793,-306 793,-331.5 915.25,-331.5 915.25,-306 793,-306"/>
<text xml:space="preserve" text-anchor="start" x="799" y="-315.05" font-family="Helvetica Neue, Arial, sans-serif" font-size="11.00">String(20)</text>
<polygon fill="none" stroke="black" points="677.5,-280.5 677.5,-306 705.25,-306 705.25,-280.5 677.5,-280.5"/>
<text xml:space="preserve" text-anchor="start" x="683.5" y="-289.55" font-family="Helvetica Neue, Arial, sans-serif" font-size="11.00" fill="#dc2626">FK</text>
<polygon fill="none" stroke="black" points="705.25,-280.5 705.25,-306 793,-306 793,-280.5 705.25,-280.5"/>
<text xml:space="preserve" text-anchor="start" x="711.25" y="-289.55" font-family="Helvetica Neue, Arial, sans-serif" font-size="11.00">sample_id</text>
<polygon fill="none" stroke="black" points="793,-280.5 793,-306 915.25,-306 915.25,-280.5 793,-280.5"/>
<text xml:space="preserve" text-anchor="start" x="799" y="-289.55" font-family="Helvetica Neue, Arial, sans-serif" font-size="11.00">→ sample.id</text>
<polygon fill="none" stroke="black" points="677.5,-255 677.5,-280.5 705.25,-280.5 705.25,-255 677.5,-255"/>
<text xml:space="preserve" text-anchor="start" x="683.5" y="-264.05" font-family="Helvetica Neue, Arial, sans-serif" font-size="11.00" fill="#dc2626">FK</text>
<polygon fill="none" stroke="black" points="705.25,-255 705.25,-280.5 793,-280.5 793,-255 705.25,-255"/>
<text xml:space="preserve" text-anchor="start" x="711.25" y="-264.05" font-family="Helvetica Neue, Arial, sans-serif" font-size="11.00">box_id</text>
<polygon fill="none" stroke="black" points="793,-255 793,-280.5 915.25,-280.5 915.25,-255 793,-255"/>
<text xml:space="preserve" text-anchor="start" x="799" y="-264.05" font-family="Helvetica Neue, Arial, sans-serif" font-size="11.00">→ box.id</text>
<polygon fill="none" stroke="black" points="677.5,-229.5 677.5,-255 705.25,-255 705.25,-229.5 677.5,-229.5"/>
<polygon fill="none" stroke="black" points="705.25,-229.5 705.25,-255 793,-255 793,-229.5 705.25,-229.5"/>
<text xml:space="preserve" text-anchor="start" x="711.25" y="-238.55" font-family="Helvetica Neue, Arial, sans-serif" font-size="11.00">position_row</text>
<polygon fill="none" stroke="black" points="793,-229.5 793,-255 915.25,-255 915.25,-229.5 793,-229.5"/>
<text xml:space="preserve" text-anchor="start" x="799" y="-238.55" font-family="Helvetica Neue, Arial, sans-serif" font-size="11.00">Integer (1&#45;9)</text>
<polygon fill="none" stroke="black" points="677.5,-204 677.5,-229.5 705.25,-229.5 705.25,-204 677.5,-204"/>
<polygon fill="none" stroke="black" points="705.25,-204 705.25,-229.5 793,-229.5 793,-204 705.25,-204"/>
<text xml:space="preserve" text-anchor="start" x="711.25" y="-213.05" font-family="Helvetica Neue, Arial, sans-serif" font-size="11.00">position_col</text>
<polygon fill="none" stroke="black" points="793,-204 793,-229.5 915.25,-229.5 915.25,-204 793,-204"/>
<text xml:space="preserve" text-anchor="start" x="799" y="-213.05" font-family="Helvetica Neue, Arial, sans-serif" font-size="11.00">Integer (1&#45;12)</text>
<polygon fill="none" stroke="black" points="677.5,-178.5 677.5,-204 705.25,-204 705.25,-178.5 677.5,-178.5"/>
<polygon fill="none" stroke="black" points="705.25,-178.5 705.25,-204 793,-204 793,-178.5 705.25,-178.5"/>
<text xml:space="preserve" text-anchor="start" x="711.25" y="-187.55" font-family="Helvetica Neue, Arial, sans-serif" font-size="11.00">concentration</text>
<polygon fill="none" stroke="black" points="793,-178.5 793,-204 915.25,-204 915.25,-178.5 793,-178.5"/>
<text xml:space="preserve" text-anchor="start" x="799" y="-187.55" font-family="Helvetica Neue, Arial, sans-serif" font-size="11.00">Float (ng/µL)</text>
<polygon fill="none" stroke="black" points="677.5,-153 677.5,-178.5 705.25,-178.5 705.25,-153 677.5,-153"/>
<polygon fill="none" stroke="black" points="705.25,-153 705.25,-178.5 793,-178.5 793,-153 705.25,-153"/>
<text xml:space="preserve" text-anchor="start" x="711.25" y="-162.05" font-family="Helvetica Neue, Arial, sans-serif" font-size="11.00">quality</text>
<polygon fill="none" stroke="black" points="793,-153 793,-178.5 915.25,-178.5 915.25,-153 793,-153"/>
<text xml:space="preserve" text-anchor="start" x="799" y="-162.05" font-family="Helvetica Neue, Arial, sans-serif" font-size="11.00">Good/Average/Poor</text>
<polygon fill="none" stroke="black" points="677.5,-127.5 677.5,-153 705.25,-153 705.25,-127.5 677.5,-127.5"/>
<polygon fill="none" stroke="black" points="705.25,-127.5 705.25,-153 793,-153 793,-127.5 705.25,-127.5"/>
<text xml:space="preserve" text-anchor="start" x="711.25" y="-136.55" font-family="Helvetica Neue, Arial, sans-serif" font-size="11.00">initial_volume</text>
<polygon fill="none" stroke="black" points="793,-127.5 793,-153 915.25,-153 915.25,-127.5 793,-127.5"/>
<text xml:space="preserve" text-anchor="start" x="799" y="-136.55" font-family="Helvetica Neue, Arial, sans-serif" font-size="11.00">Float (µL)</text>
<polygon fill="none" stroke="black" points="677.5,-102 677.5,-127.5 705.25,-127.5 705.25,-102 677.5,-102"/>
<polygon fill="none" stroke="black" points="705.25,-102 705.25,-127.5 793,-127.5 793,-102 705.25,-102"/>
<text xml:space="preserve" text-anchor="start" x="711.25" y="-111.05" font-family="Helvetica Neue, Arial, sans-serif" font-size="11.00">current_volume</text>
<polygon fill="none" stroke="black" points="793,-102 793,-127.5 915.25,-127.5 915.25,-102 793,-102"/>
<text xml:space="preserve" text-anchor="start" x="799" y="-111.05" font-family="Helvetica Neue, Arial, sans-serif" font-size="11.00">Float (µL)</text>
<polygon fill="none" stroke="black" points="677.5,-76.5 677.5,-102 705.25,-102 705.25,-76.5 677.5,-76.5"/>
<polygon fill="none" stroke="black" points="705.25,-76.5 705.25,-102 793,-102 793,-76.5 705.25,-76.5"/>
<text xml:space="preserve" text-anchor="start" x="711.25" y="-85.55" font-family="Helvetica Neue, Arial, sans-serif" font-size="11.00">source</text>
<polygon fill="none" stroke="black" points="793,-76.5 793,-102 915.25,-102 915.25,-76.5 793,-76.5"/>
<text xml:space="preserve" text-anchor="start" x="799" y="-85.55" font-family="Helvetica Neue, Arial, sans-serif" font-size="11.00">Blood/Saliva/…</text>
<polygon fill="none" stroke="black" points="677.5,-51 677.5,-76.5 705.25,-76.5 705.25,-51 677.5,-51"/>
<polygon fill="none" stroke="black" points="705.25,-51 705.25,-76.5 793,-76.5 793,-51 705.25,-51"/>
<text xml:space="preserve" text-anchor="start" x="711.25" y="-60.05" font-family="Helvetica Neue, Arial, sans-serif" font-size="11.00">tube_type</text>
<polygon fill="none" stroke="black" points="793,-51 793,-76.5 915.25,-76.5 915.25,-51 793,-51"/>
<text xml:space="preserve" text-anchor="start" x="799" y="-60.05" font-family="Helvetica Neue, Arial, sans-serif" font-size="11.00">stock/working/deleted</text>
<polygon fill="none" stroke="black" points="677.5,-25.5 677.5,-51 705.25,-51 705.25,-25.5 677.5,-25.5"/>
<polygon fill="none" stroke="black" points="705.25,-25.5 705.25,-51 793,-51 793,-25.5 705.25,-25.5"/>
<text xml:space="preserve" text-anchor="start" x="711.25" y="-34.55" font-family="Helvetica Neue, Arial, sans-serif" font-size="11.00">notes</text>
<polygon fill="none" stroke="black" points="793,-25.5 793,-51 915.25,-51 915.25,-25.5 793,-25.5"/>
<text xml:space="preserve" text-anchor="start" x="799" y="-34.55" font-family="Helvetica Neue, Arial, sans-serif" font-size="11.00">Text</text>
<polygon fill="none" stroke="black" points="677.5,0 677.5,-25.5 705.25,-25.5 705.25,0 677.5,0"/>
<polygon fill="none" stroke="black" points="705.25,0 705.25,-25.5 793,-25.5 793,0 705.25,0"/>
<text xml:space="preserve" text-anchor="start" x="711.25" y="-9.05" font-family="Helvetica Neue, Arial, sans-serif" font-size="11.00">created_at</text>
<polygon fill="none" stroke="black" points="793,0 793,-25.5 915.25,-25.5 915.25,0 793,0"/>
<text xml:space="preserve" text-anchor="start" x="799" y="-9.05" font-family="Helvetica Neue, Arial, sans-serif" font-size="11.00">DateTime</text>
</g>
<!-- sample&#45;&gt;tube -->
<g id="edge2" class="edge">
<title>sample&#45;&gt;tube</title>
<path fill="none" stroke="#555555" d="M543.96,-331.44C582.53,-310.04 627.48,-285.12 668.61,-262.3"/>
<polygon fill="#555555" stroke="#555555" points="543.02,-337.67 538.17,-328.93 539.92,-327.96 544.77,-336.7 543.02,-337.67"/>
<polyline fill="none" stroke="#555555" points="539.72,-333.79 544.09,-331.36"/>
<polygon fill="#555555" stroke="#555555" points="668.56,-262.33 679.49,-261.42 673.23,-259.74 677.01,-257.64 677.01,-257.64 677.01,-257.64 673.23,-259.74 675.12,-253.54 668.56,-262.33"/>
<text xml:space="preserve" text-anchor="middle" x="608.62" y="-308.29" font-family="Helvetica Neue, Arial, sans-serif" font-size="10.00"> &#160;1 &#160;&#160;&#160;&#160;&#160;&#160;&#160;&#160;N &#160;</text>
</g>
<!-- box -->
<g id="node3" class="node">
<title>box</title>
<polygon fill="#d97706" stroke="none" points="360.5,-213 360.5,-239.25 532.25,-239.25 532.25,-213 360.5,-213"/>
<polygon fill="none" stroke="black" points="360.5,-213 360.5,-239.25 532.25,-239.25 532.25,-213 360.5,-213"/>
<text xml:space="preserve" text-anchor="start" x="394.62" y="-223.8" font-family="Helvetica Neue, Arial, sans-serif" font-size="11.00"> &#160;&#160;&#160;&#160;&#160;&#160;&#160;&#160;&#160;&#160;&#160;&#160;&#160;&#160;&#160;</text>
<text xml:space="preserve" text-anchor="start" x="442.62" y="-223.8" font-family="Helvetica Neue, Arial, sans-serif" font-weight="bold" font-size="11.00" fill="white">box</text>
<text xml:space="preserve" text-anchor="start" x="462.12" y="-223.8" font-family="Helvetica Neue, Arial, sans-serif" font-size="11.00"> &#160;&#160;&#160;&#160;&#160;&#160;&#160;&#160;&#160;&#160;&#160;</text>
<polygon fill="none" stroke="black" points="360.5,-186.75 360.5,-213 387.5,-213 387.5,-186.75 360.5,-186.75"/>
<text xml:space="preserve" text-anchor="start" x="366.5" y="-196.18" font-family="Helvetica Neue, Arial, sans-serif" font-size="11.00" fill="#6b7280">PK</text>
<polygon fill="none" stroke="black" points="387.5,-186.75 387.5,-213 445.25,-213 445.25,-186.75 387.5,-186.75"/>
<text xml:space="preserve" text-anchor="start" x="393.5" y="-197.55" font-family="Helvetica Neue, Arial, sans-serif" font-weight="bold" font-size="11.00">id</text>
<polygon fill="none" stroke="black" points="445.25,-186.75 445.25,-213 532.25,-213 532.25,-186.75 445.25,-186.75"/>
<text xml:space="preserve" text-anchor="start" x="451.25" y="-196.18" font-family="Helvetica Neue, Arial, sans-serif" font-size="11.00">Integer</text>
<polygon fill="none" stroke="black" points="360.5,-161.25 360.5,-186.75 387.5,-186.75 387.5,-161.25 360.5,-161.25"/>
<polygon fill="none" stroke="black" points="387.5,-161.25 387.5,-186.75 445.25,-186.75 445.25,-161.25 387.5,-161.25"/>
<text xml:space="preserve" text-anchor="start" x="393.5" y="-170.3" font-family="Helvetica Neue, Arial, sans-serif" font-size="11.00">name</text>
<polygon fill="none" stroke="black" points="445.25,-161.25 445.25,-186.75 532.25,-186.75 532.25,-161.25 445.25,-161.25"/>
<text xml:space="preserve" text-anchor="start" x="451.25" y="-170.3" font-family="Helvetica Neue, Arial, sans-serif" font-size="11.00">String(50)</text>
<polygon fill="none" stroke="black" points="360.5,-135.75 360.5,-161.25 387.5,-161.25 387.5,-135.75 360.5,-135.75"/>
<polygon fill="none" stroke="black" points="387.5,-135.75 387.5,-161.25 445.25,-161.25 445.25,-135.75 387.5,-135.75"/>
<text xml:space="preserve" text-anchor="start" x="393.5" y="-144.8" font-family="Helvetica Neue, Arial, sans-serif" font-size="11.00">box_type</text>
<polygon fill="none" stroke="black" points="445.25,-135.75 445.25,-161.25 532.25,-161.25 532.25,-135.75 445.25,-135.75"/>
<text xml:space="preserve" text-anchor="start" x="451.25" y="-144.8" font-family="Helvetica Neue, Arial, sans-serif" font-size="11.00">stock / working</text>
<polygon fill="none" stroke="black" points="360.5,-110.25 360.5,-135.75 387.5,-135.75 387.5,-110.25 360.5,-110.25"/>
<polygon fill="none" stroke="black" points="387.5,-110.25 387.5,-135.75 445.25,-135.75 445.25,-110.25 387.5,-110.25"/>
<text xml:space="preserve" text-anchor="start" x="393.5" y="-119.3" font-family="Helvetica Neue, Arial, sans-serif" font-size="11.00">freezer</text>
<polygon fill="none" stroke="black" points="445.25,-110.25 445.25,-135.75 532.25,-135.75 532.25,-110.25 445.25,-110.25"/>
<text xml:space="preserve" text-anchor="start" x="451.25" y="-119.3" font-family="Helvetica Neue, Arial, sans-serif" font-size="11.00">String(50)</text>
<polygon fill="none" stroke="black" points="360.5,-84.75 360.5,-110.25 387.5,-110.25 387.5,-84.75 360.5,-84.75"/>
<polygon fill="none" stroke="black" points="387.5,-84.75 387.5,-110.25 445.25,-110.25 445.25,-84.75 387.5,-84.75"/>
<text xml:space="preserve" text-anchor="start" x="393.5" y="-93.8" font-family="Helvetica Neue, Arial, sans-serif" font-size="11.00">notes</text>
<polygon fill="none" stroke="black" points="445.25,-84.75 445.25,-110.25 532.25,-110.25 532.25,-84.75 445.25,-84.75"/>
<text xml:space="preserve" text-anchor="start" x="451.25" y="-93.8" font-family="Helvetica Neue, Arial, sans-serif" font-size="11.00">Text</text>
</g>
<!-- box&#45;&gt;tube -->
<g id="edge3" class="edge">
<title>box&#45;&gt;tube</title>
<path fill="none" stroke="#555555" d="M536.97,-169.72C576.65,-173.14 624.04,-177.23 667.34,-180.96"/>
<polygon fill="#555555" stroke="#555555" points="532.63,-174.37 533.49,-164.4 535.48,-164.58 534.62,-174.54 532.63,-174.37"/>
<polyline fill="none" stroke="#555555" points="532.06,-169.3 537.04,-169.73"/>
<polygon fill="#555555" stroke="#555555" points="667.38,-180.97 676.95,-186.31 672.69,-181.42 677.01,-181.8 677.01,-181.8 677.01,-181.8 672.69,-181.42 677.73,-177.34 667.38,-180.97"/>
<text xml:space="preserve" text-anchor="middle" x="608.62" y="-180.4" font-family="Helvetica Neue, Arial, sans-serif" font-size="10.00"> &#160;1 &#160;&#160;&#160;&#160;&#160;&#160;&#160;&#160;N &#160;</text>
</g>
<!-- usage -->
<g id="node5" class="node">
<title>usage</title>
<polygon fill="#6b7280" stroke="none" points="1053,-281.25 1053,-307.5 1225.5,-307.5 1225.5,-281.25 1053,-281.25"/>
<polygon fill="none" stroke="black" points="1053,-281.25 1053,-307.5 1225.5,-307.5 1225.5,-281.25 1053,-281.25"/>
<text xml:space="preserve" text-anchor="start" x="1081.5" y="-292.05" font-family="Helvetica Neue, Arial, sans-serif" font-size="11.00"> &#160;&#160;&#160;&#160;&#160;&#160;&#160;&#160;&#160;&#160;&#160;&#160;&#160;&#160;&#160;</text>
<text xml:space="preserve" text-anchor="start" x="1129.5" y="-292.05" font-family="Helvetica Neue, Arial, sans-serif" font-weight="bold" font-size="11.00" fill="white">usage</text>
<text xml:space="preserve" text-anchor="start" x="1161" y="-292.05" font-family="Helvetica Neue, Arial, sans-serif" font-size="11.00"> &#160;&#160;&#160;&#160;&#160;&#160;&#160;&#160;&#160;&#160;&#160;</text>
<polygon fill="none" stroke="black" points="1053,-255 1053,-281.25 1080,-281.25 1080,-255 1053,-255"/>
<text xml:space="preserve" text-anchor="start" x="1059" y="-264.43" font-family="Helvetica Neue, Arial, sans-serif" font-size="11.00" fill="#6b7280">PK</text>
<polygon fill="none" stroke="black" points="1080,-255 1080,-281.25 1160.25,-281.25 1160.25,-255 1080,-255"/>
<text xml:space="preserve" text-anchor="start" x="1086" y="-265.8" font-family="Helvetica Neue, Arial, sans-serif" font-weight="bold" font-size="11.00">id</text>
<polygon fill="none" stroke="black" points="1160.25,-255 1160.25,-281.25 1225.5,-281.25 1225.5,-255 1160.25,-255"/>
<text xml:space="preserve" text-anchor="start" x="1166.25" y="-264.43" font-family="Helvetica Neue, Arial, sans-serif" font-size="11.00">Integer</text>
<polygon fill="none" stroke="black" points="1053,-229.5 1053,-255 1080,-255 1080,-229.5 1053,-229.5"/>
<text xml:space="preserve" text-anchor="start" x="1059" y="-238.55" font-family="Helvetica Neue, Arial, sans-serif" font-size="11.00" fill="#dc2626">FK</text>
<polygon fill="none" stroke="black" points="1080,-229.5 1080,-255 1160.25,-255 1160.25,-229.5 1080,-229.5"/>
<text xml:space="preserve" text-anchor="start" x="1086" y="-238.55" font-family="Helvetica Neue, Arial, sans-serif" font-size="11.00">tube_id</text>
<polygon fill="none" stroke="black" points="1160.25,-229.5 1160.25,-255 1225.5,-255 1225.5,-229.5 1160.25,-229.5"/>
<text xml:space="preserve" text-anchor="start" x="1166.25" y="-238.55" font-family="Helvetica Neue, Arial, sans-serif" font-size="11.00">→ tube.id</text>
<polygon fill="none" stroke="black" points="1053,-204 1053,-229.5 1080,-229.5 1080,-204 1053,-204"/>
<polygon fill="none" stroke="black" points="1080,-204 1080,-229.5 1160.25,-229.5 1160.25,-204 1080,-204"/>
<text xml:space="preserve" text-anchor="start" x="1086" y="-213.05" font-family="Helvetica Neue, Arial, sans-serif" font-size="11.00">user_name</text>
<polygon fill="none" stroke="black" points="1160.25,-204 1160.25,-229.5 1225.5,-229.5 1225.5,-204 1160.25,-204"/>
<text xml:space="preserve" text-anchor="start" x="1166.25" y="-213.05" font-family="Helvetica Neue, Arial, sans-serif" font-size="11.00">String(50)</text>
<polygon fill="none" stroke="black" points="1053,-178.5 1053,-204 1080,-204 1080,-178.5 1053,-178.5"/>
<polygon fill="none" stroke="black" points="1080,-178.5 1080,-204 1160.25,-204 1160.25,-178.5 1080,-178.5"/>
<text xml:space="preserve" text-anchor="start" x="1086" y="-187.55" font-family="Helvetica Neue, Arial, sans-serif" font-size="11.00">date_out</text>
<polygon fill="none" stroke="black" points="1160.25,-178.5 1160.25,-204 1225.5,-204 1225.5,-178.5 1160.25,-178.5"/>
<text xml:space="preserve" text-anchor="start" x="1166.25" y="-187.55" font-family="Helvetica Neue, Arial, sans-serif" font-size="11.00">Date</text>
<polygon fill="none" stroke="black" points="1053,-153 1053,-178.5 1080,-178.5 1080,-153 1053,-153"/>
<polygon fill="none" stroke="black" points="1080,-153 1080,-178.5 1160.25,-178.5 1160.25,-153 1080,-153"/>
<text xml:space="preserve" text-anchor="start" x="1086" y="-162.05" font-family="Helvetica Neue, Arial, sans-serif" font-size="11.00">date_return</text>
<polygon fill="none" stroke="black" points="1160.25,-153 1160.25,-178.5 1225.5,-178.5 1225.5,-153 1160.25,-153"/>
<text xml:space="preserve" text-anchor="start" x="1166.25" y="-162.05" font-family="Helvetica Neue, Arial, sans-serif" font-size="11.00">Date</text>
<polygon fill="none" stroke="black" points="1053,-127.5 1053,-153 1080,-153 1080,-127.5 1053,-127.5"/>
<polygon fill="none" stroke="black" points="1080,-127.5 1080,-153 1160.25,-153 1160.25,-127.5 1080,-127.5"/>
<text xml:space="preserve" text-anchor="start" x="1086" y="-136.55" font-family="Helvetica Neue, Arial, sans-serif" font-size="11.00">volume_taken</text>
<polygon fill="none" stroke="black" points="1160.25,-127.5 1160.25,-153 1225.5,-153 1225.5,-127.5 1160.25,-127.5"/>
<text xml:space="preserve" text-anchor="start" x="1166.25" y="-136.55" font-family="Helvetica Neue, Arial, sans-serif" font-size="11.00">Float (µL)</text>
<polygon fill="none" stroke="black" points="1053,-102 1053,-127.5 1080,-127.5 1080,-102 1053,-102"/>
<polygon fill="none" stroke="black" points="1080,-102 1080,-127.5 1160.25,-127.5 1160.25,-102 1080,-102"/>
<text xml:space="preserve" text-anchor="start" x="1086" y="-111.05" font-family="Helvetica Neue, Arial, sans-serif" font-size="11.00">purpose</text>
<polygon fill="none" stroke="black" points="1160.25,-102 1160.25,-127.5 1225.5,-127.5 1225.5,-102 1160.25,-102"/>
<text xml:space="preserve" text-anchor="start" x="1166.25" y="-111.05" font-family="Helvetica Neue, Arial, sans-serif" font-size="11.00">String(100)</text>
<polygon fill="none" stroke="black" points="1053,-76.5 1053,-102 1080,-102 1080,-76.5 1053,-76.5"/>
<polygon fill="none" stroke="black" points="1080,-76.5 1080,-102 1160.25,-102 1160.25,-76.5 1080,-76.5"/>
<text xml:space="preserve" text-anchor="start" x="1086" y="-85.55" font-family="Helvetica Neue, Arial, sans-serif" font-size="11.00">notes</text>
<polygon fill="none" stroke="black" points="1160.25,-76.5 1160.25,-102 1225.5,-102 1225.5,-76.5 1160.25,-76.5"/>
<text xml:space="preserve" text-anchor="start" x="1166.25" y="-85.55" font-family="Helvetica Neue, Arial, sans-serif" font-size="11.00">Text</text>
</g>
<!-- tube&#45;&gt;usage -->
<g id="edge4" class="edge">
<title>tube&#45;&gt;usage</title>
<path fill="none" stroke="#555555" d="M919.97,-192C960.52,-192 1005.01,-192 1043.18,-192"/>
<polygon fill="#555555" stroke="#555555" points="916.16,-197 916.16,-187 918.16,-187 918.16,-197 916.16,-197"/>
<polyline fill="none" stroke="#555555" points="915.16,-192 920.16,-192"/>
<polygon fill="#555555" stroke="#555555" points="1042.92,-192 1052.92,-196.5 1048.25,-192 1052.58,-192 1052.58,-192 1052.58,-192 1048.25,-192 1052.92,-187.5 1042.92,-192"/>
<text xml:space="preserve" text-anchor="middle" x="984.12" y="-194.5" font-family="Helvetica Neue, Arial, sans-serif" font-size="10.00"> &#160;1 &#160;&#160;&#160;&#160;&#160;&#160;&#160;&#160;N &#160;</text>
</g>
</g>
</svg>
